<svg width="48" height="48" viewBox="0 0 48 48" fill="none" xmlns="http://www.w3.org/2000/svg">
<g clip-path="url(#clip0)">
<path d="M37.0818 8.59577L19.4212 0.0699609C19.228 -0.0233203 19.003 -0.0233203 18.8099 0.0699609L1.14924 8.59577C0.906237 8.71306 0.751831 8.95905 0.751831 9.22896V29.9344C0.751831 30.2042 0.906237 30.4503 1.14924 30.5676L18.8098 39.0933C18.9063 39.14 19.011 39.1632 19.1155 39.1632C19.22 39.1632 19.3245 39.1399 19.4212 39.0933L22.9957 37.3677C23.3454 37.1989 23.492 36.7785 23.3233 36.4288C23.1544 36.0791 22.734 35.9327 22.3844 36.1013L19.8187 37.3399V18.1961L23.2992 16.5158C23.6489 16.3469 23.7955 15.9266 23.6266 15.5769C23.4578 15.2273 23.0374 15.0807 22.6877 15.2494L19.1155 16.974L3.07224 9.22896L8.42564 6.64456L25.4157 14.8466V21.6064C25.4157 21.8484 25.5401 22.0733 25.745 22.202C25.8588 22.2734 25.9887 22.3095 26.1189 22.3095C26.2231 22.3095 26.3277 22.2864 26.4245 22.2396L30.6874 20.1816C30.9304 20.0643 31.0848 19.8183 31.0848 19.5484V12.7572L36.073 10.3492V23.2486C36.073 23.6369 36.3878 23.9517 36.7761 23.9517C37.1644 23.9517 37.4792 23.6369 37.4792 23.2486V9.22896C37.4792 8.95915 37.3248 8.71306 37.0818 8.59577ZM18.4124 18.1961V37.34L2.15808 29.4931V10.3492L18.4124 18.1961ZM26.0862 13.6089L10.073 5.87824L13.104 4.40918L29.1233 12.1427L26.0862 13.6089ZM29.6786 19.107L26.8219 20.4861V14.8151L29.6786 13.4361V19.107ZM30.736 11.364C30.7199 11.3546 30.7044 11.3443 30.6874 11.3362L14.6973 3.6168L19.1155 1.4839L35.1587 9.22887L30.736 11.364Z" fill="#A9A9A9"/>
<path d="M7.39357 27.1817L4.80185 25.9305C4.45207 25.7615 4.03179 25.9083 3.86295 26.258C3.6941 26.6077 3.84073 27.0281 4.19042 27.1969L6.78213 28.4481C6.88066 28.4957 6.98482 28.5182 7.08729 28.5182C7.34866 28.5182 7.59973 28.3718 7.72094 28.1206C7.88988 27.7708 7.74326 27.3506 7.39357 27.1817Z" fill="#A9A9A9"/>
<path d="M9.77837 25.1596L4.80503 22.7587C4.45515 22.5896 4.03487 22.7364 3.86612 23.0861C3.69728 23.4358 3.8439 23.8562 4.19359 24.025L9.16693 26.4259C9.26546 26.4735 9.36962 26.496 9.47209 26.496C9.73346 26.496 9.98453 26.3496 10.1057 26.0984C10.2747 25.7488 10.1281 25.3284 9.77837 25.1596Z" fill="#A9A9A9"/>
<path d="M36.0242 25.5518C29.8351 25.5518 24.7999 30.587 24.7999 36.7761C24.7999 42.9652 29.8351 48.0003 36.0242 48.0003C42.2133 48.0003 47.2486 42.9652 47.2486 36.776C47.2486 30.5868 42.2134 25.5518 36.0242 25.5518ZM36.0242 46.594C30.6106 46.594 26.2062 42.1898 26.2062 36.776C26.2062 31.3622 30.6106 26.9579 36.0242 26.9579C41.4379 26.9579 45.8423 31.3623 45.8423 36.776C45.8423 42.1897 41.438 46.594 36.0242 46.594Z" fill="#39B993"/>
<path d="M43.5395 36.0728H38.115C37.8952 35.4211 37.3791 34.9051 36.7275 34.6853V29.2607C36.7275 28.8724 36.4126 28.5576 36.0243 28.5576C35.636 28.5576 35.3212 28.8724 35.3212 29.2607V34.6853C34.4486 34.9796 33.8181 35.8052 33.8181 36.7759C33.8181 37.9924 34.8078 38.9821 36.0243 38.9821C36.9949 38.9821 37.8206 38.3517 38.115 37.4791H43.5395C43.9278 37.4791 44.2426 37.1642 44.2426 36.7759C44.2426 36.3876 43.9278 36.0728 43.5395 36.0728ZM36.0243 37.5758C35.5832 37.5758 35.2244 37.2169 35.2244 36.7759C35.2244 36.3348 35.5832 35.976 36.0243 35.976C36.4654 35.976 36.8242 36.3348 36.8242 36.7759C36.8243 37.2169 36.4654 37.5758 36.0243 37.5758Z" fill="#39B993"/>
</g>
<defs>
<clipPath id="clip0">
<rect width="48" height="48" fill="white"/>
</clipPath>
</defs>
</svg>
