<svg width="48" height="48" viewBox="0 0 48 48" fill="none" xmlns="http://www.w3.org/2000/svg">
<path d="M18.9416 38.71H11.1997V40.2583H18.9416V38.71Z" fill="#39B993"/>
<path d="M47.6388 6.96774H30.5028L30.8055 11.6129H27.4579V8.51613H29.0062V4.64516V3.87097V2.32258C29.0062 1.04206 27.9642 0 26.6837 0H22.0385C20.758 0 19.7159 1.04206 19.7159 2.32258V3.87097H3.45786V8.51613H21.2643V11.6129H15.845C13.2831 11.6129 11.1998 13.6963 11.1998 16.2581V26.3226H7.32883C5.62095 26.3226 4.23205 27.7115 4.23205 29.4194V30.9677H2.68366C1.40315 30.9677 0.361084 32.0098 0.361084 33.2903V45.6774C0.361084 46.9579 1.40315 48 2.68366 48H26.6837H27.4579H35.1998H42.9417C44.6496 48 46.0385 46.6111 46.0385 44.9032C46.0385 44.1422 45.7521 43.4532 45.2945 42.9135L47.6388 6.96774ZM45.5322 15.4839H32.6093L32.357 11.6129H45.7846L45.5322 15.4839ZM45.9866 8.51613L45.886 10.0645H32.2563L32.1557 8.51613H45.9866ZM21.2643 2.32258C21.2643 1.896 21.6119 1.54839 22.0385 1.54839H26.6837C27.1102 1.54839 27.4579 1.896 27.4579 2.32258V3.87097H21.2643V2.32258ZM5.00625 6.96774V5.41935H27.4579V6.96774H5.00625ZM25.9095 8.51613V11.6129H22.8127V8.51613H25.9095ZM12.7482 16.2581C12.7482 14.5502 14.1371 13.1613 15.845 13.1613H30.9061L31.2591 18.5806H12.7482V16.2581ZM5.78044 29.4194C5.78044 28.5654 6.47489 27.871 7.32883 27.871H22.8127C23.6666 27.871 24.3611 28.5654 24.3611 29.4194V30.9677H5.78044V29.4194ZM28.2321 45.6774C28.2321 46.104 27.8844 46.4516 27.4579 46.4516H26.6837H2.68366C2.25708 46.4516 1.90947 46.104 1.90947 45.6774V44.9032H28.2321V45.6774ZM28.2321 43.3548H1.90947V35.6129H28.2321V43.3548ZM28.2321 34.0645H1.90947V33.2903C1.90947 32.8637 2.25708 32.5161 2.68366 32.5161H4.23205H25.9095H27.4579C27.8844 32.5161 28.2321 32.8637 28.2321 33.2903V34.0645ZM27.4579 30.9677H25.9095V29.4194C25.9095 27.7115 24.5206 26.3226 22.8127 26.3226H12.7482V20.129H31.3606L32.2191 33.2903H29.7804C29.7804 32.0098 28.7384 30.9677 27.4579 30.9677ZM32.5335 46.4516H29.6372C29.7247 46.2085 29.7804 45.9499 29.7804 45.6774V34.8387H32.3198L32.8462 42.9135C32.3895 43.4532 32.103 44.1422 32.103 44.9032C32.103 45.4699 32.2671 45.9941 32.5335 46.4516ZM42.9417 46.4516H35.1998C34.3459 46.4516 33.6514 45.7572 33.6514 44.9032C33.6514 44.0493 34.3459 43.3548 35.1998 43.3548H42.9417C43.7957 43.3548 44.4901 44.0493 44.4901 44.9032C44.4901 45.7572 43.7957 46.4516 42.9417 46.4516ZM33.67 31.7419H44.4715L43.8065 41.9443C43.5301 41.8637 43.2437 41.8064 42.9417 41.8064H35.1998C34.8979 41.8064 34.6114 41.8637 34.335 41.9443L33.67 31.7419ZM44.5722 30.1935H33.5693L32.7108 17.0323H45.4308L44.5722 30.1935Z" fill="#A9A9A9"/>
<path d="M43.7159 21.6777H34.4255V23.2261H43.7159V21.6777Z" fill="#39B993"/>
<path d="M3.45786 18.5806C5.16573 18.5806 6.55463 17.1917 6.55463 15.4838C6.55463 14.818 6.33476 14.1576 5.93528 13.6257L3.45786 10.3223L0.980439 13.6257C0.580955 14.1576 0.361084 14.818 0.361084 15.4838C0.361084 17.1917 1.74999 18.5806 3.45786 18.5806ZM2.21915 14.5548L3.45786 12.9034L4.69657 14.5556C4.89631 14.8211 5.00625 15.1509 5.00625 15.4838C5.00625 16.3377 4.31179 17.0322 3.45786 17.0322C2.60392 17.0322 1.90947 16.3377 1.90947 15.4838C1.90947 15.1509 2.01941 14.8211 2.21915 14.5548Z" fill="#39B993"/>
<path d="M43.7159 24.7744H42.1675V26.3228H43.7159V24.7744Z" fill="#39B993"/>
<path d="M40.6191 24.7744H34.4255V26.3228H40.6191V24.7744Z" fill="#39B993"/>
</svg>
