<svg width="48" height="48" viewBox="0 0 48 48" fill="none" xmlns="http://www.w3.org/2000/svg">
<path d="M47.6719 21.9834C47.6719 21.5953 47.3569 21.2803 46.9688 21.2803H29.8583V15.4215C29.8583 15.0331 29.5436 14.7184 29.1552 14.7184H24.4677H23.2969V12.1406C23.2969 11.3494 23.1423 10.5816 22.8366 9.85969C22.5413 9.16219 22.1185 8.535 21.5804 7.99688C21.0432 7.45875 20.416 7.03688 19.7186 6.74156C18.9958 6.43584 18.2288 6.28125 17.4377 6.28125C16.6464 6.28125 15.8795 6.43584 15.1567 6.74156C15.1381 6.74944 15.12 6.75844 15.1014 6.76659C15.0828 6.75844 15.0648 6.74944 15.0461 6.74156C14.3242 6.43584 13.5573 6.28125 12.7661 6.28125C11.9748 6.28125 11.207 6.43584 10.4852 6.74156C9.78766 7.03678 9.16047 7.45866 8.62235 7.99688C8.08422 8.535 7.66235 9.16125 7.36703 9.85969C7.06132 10.5816 6.90672 11.3494 6.90672 12.1406V14.7184H1.03113C0.642815 14.7184 0.328003 15.0331 0.328003 15.4215V15.4217V15.4219V47.2959C0.328003 47.6843 0.642815 47.9991 1.03113 47.9991H24.4496C24.4557 47.9992 24.4616 48 24.4677 48H29.1552H29.1553H29.1554H46.9688C47.356 48 47.6719 47.685 47.6719 47.2969C47.6719 47.2903 47.6711 47.2838 47.6709 47.2773C47.6711 47.2706 47.6719 47.2642 47.6719 47.2575V21.9834ZM17.4376 7.68656C18.6263 7.6875 19.7447 8.15053 20.5866 8.99156C21.4276 9.83334 21.8907 10.9518 21.8907 12.1406V14.7184H18.6254V12.1406C18.6254 11.3494 18.4698 10.5816 18.1641 9.85969C17.8697 9.16125 17.4469 8.535 16.9087 7.99688C16.8257 7.91381 16.7397 7.8345 16.6526 7.75697C16.9093 7.71141 17.1715 7.68675 17.4376 7.68656ZM15.1016 8.34863C15.3929 8.52881 15.6659 8.74322 15.9141 8.99156C16.7551 9.83334 17.2182 10.9518 17.2191 12.1406V14.7184H12.9844V12.1406C12.9844 10.9518 13.4475 9.83344 14.2885 8.99156C14.5369 8.74331 14.8101 8.52881 15.1016 8.34863ZM9.61694 8.99156C10.4587 8.15053 11.5773 7.6875 12.766 7.68656C13.0321 7.68675 13.2943 7.71141 13.5509 7.75697C13.4637 7.83441 13.3777 7.91381 13.2948 7.99688C12.7566 8.535 12.3338 9.16125 12.0386 9.85969C11.7339 10.5816 11.5783 11.3494 11.5783 12.1406V14.7184H8.31297V12.1406H8.31288C8.31288 10.9518 8.77591 9.83344 9.61694 8.99156ZM23.7646 46.5928H1.73425V16.1246H6.90663V21.0469C6.90663 21.4341 7.22163 21.7491 7.60975 21.7491C7.99694 21.7491 8.31288 21.4341 8.31288 21.0469V16.1246H12.2741C12.2765 16.1246 12.279 16.125 12.2813 16.125C12.2838 16.125 12.2861 16.1246 12.2885 16.1246H17.2191V21.0469C17.2191 21.4341 17.5341 21.7491 17.9223 21.7491C18.3094 21.7491 18.6254 21.4341 18.6254 21.0469V16.1246H22.5866C22.589 16.1246 22.5914 16.125 22.5938 16.125C22.5963 16.125 22.5986 16.1246 22.601 16.1246H23.7646V46.5928ZM28.4521 46.5938H25.1708V16.1246H28.4521V46.5938ZM41.5782 46.5938H29.8583V30.14C30.3388 30.0776 30.8063 29.9527 31.2544 29.7628C31.8966 29.4919 32.4732 29.1028 32.9682 28.6078C33.4631 28.1129 33.8513 27.5363 34.1231 26.8942C34.4044 26.2304 34.5469 25.5235 34.5469 24.796C34.5469 24.4078 34.2319 24.0929 33.8438 24.0929C33.4566 24.0929 33.1407 24.4078 33.1407 24.796C33.1407 25.8592 32.7263 26.8595 31.9744 27.6132C31.3894 28.1976 30.6553 28.577 29.8584 28.718V22.6866H41.5782V46.5938ZM46.2657 46.5938H42.9844V22.6866H46.2657V46.5938Z" fill="#A9A9A9"/>
<path d="M37.1255 2.8125C35.9624 2.8125 35.0161 3.75881 35.0161 4.92187C35.0161 6.08494 35.9624 7.03125 37.1255 7.03125C38.2886 7.03125 39.2349 6.08494 39.2349 4.92187C39.2349 3.75881 38.2886 2.8125 37.1255 2.8125ZM37.1255 5.625C36.7377 5.625 36.4224 5.30962 36.4224 4.92187C36.4224 4.53412 36.7377 4.21875 37.1255 4.21875C37.5132 4.21875 37.8286 4.53412 37.8286 4.92187C37.8286 5.30962 37.5132 5.625 37.1255 5.625Z" fill="#39B993"/>
<path d="M42.7505 8.4375C41.5874 8.4375 40.6411 9.38381 40.6411 10.5469C40.6411 11.7099 41.5874 12.6562 42.7505 12.6562C43.9136 12.6562 44.8599 11.7099 44.8599 10.5469C44.8599 9.38381 43.9136 8.4375 42.7505 8.4375ZM42.7505 11.25C42.3627 11.25 42.0474 10.9346 42.0474 10.5469C42.0474 10.1591 42.3627 9.84375 42.7505 9.84375C43.1382 9.84375 43.4536 10.1591 43.4536 10.5469C43.4536 10.9346 43.1382 11.25 42.7505 11.25Z" fill="#39B993"/>
<path d="M44.6541 3.01837C44.3794 2.74388 43.9343 2.74388 43.6596 3.01837L35.2219 11.456C34.9473 11.7306 34.9473 12.1758 35.2219 12.4505C35.3593 12.5877 35.5393 12.6563 35.7192 12.6563C35.8991 12.6563 36.0791 12.5877 36.2164 12.4505L44.6541 4.01278C44.9287 3.73809 44.9287 3.29297 44.6541 3.01837Z" fill="#39B993"/>
<path d="M46.9689 0H32.9064C32.5182 0 32.2033 0.314906 32.2033 0.703125C32.2033 0.743156 32.2074 0.782156 32.2138 0.820313C32.2074 0.858469 32.2033 0.897469 32.2033 0.9375V5.39063C32.2033 5.77781 32.5182 6.09375 32.9064 6.09375C33.2945 6.09375 33.6095 5.77781 33.6095 5.39063V1.40625H46.2658V13.406L39.9376 16.7813L33.6095 13.406V8.20313C33.6095 7.81491 33.2945 7.5 32.9064 7.5C32.5182 7.5 32.2033 7.81491 32.2033 8.20313V13.822C32.2031 13.8475 32.2042 13.8731 32.2068 13.8986C32.2158 13.9882 32.2421 14.0725 32.2816 14.1491C32.2837 14.1534 32.2856 14.1579 32.2878 14.1622C32.2895 14.1652 32.2915 14.1681 32.2932 14.1712C32.358 14.288 32.4546 14.384 32.5755 14.4488L39.6067 18.1988C39.7089 18.2522 39.8234 18.2813 39.9376 18.2813C40.0519 18.2813 40.1663 18.2522 40.2686 18.1988L47.2998 14.4488C47.4028 14.3938 47.4859 14.3166 47.5476 14.2264C47.5491 14.2242 47.5508 14.2223 47.5523 14.2201C47.5596 14.2091 47.5661 14.1977 47.5728 14.1863C47.5783 14.1773 47.5838 14.1687 47.5888 14.1594C47.5914 14.1545 47.5935 14.1493 47.596 14.1443C47.6427 14.0523 47.6698 13.9488 47.6715 13.8391C47.6715 13.8369 47.6718 13.8347 47.6718 13.8325C47.6718 13.831 47.672 13.8297 47.672 13.8283V0.703125C47.672 0.314906 47.357 0 46.9689 0Z" fill="#39B993"/>
</svg>
