<svg width="48" height="48" viewBox="0 0 48 48" fill="none" xmlns="http://www.w3.org/2000/svg">
<g clip-path="url(#clip0)">
<path d="M10.8482 8.2666C9.63159 8.2666 8.64197 9.25641 8.64197 10.4728C8.64197 11.6892 9.63178 12.679 10.8482 12.679C12.0647 12.679 13.0544 11.6892 13.0544 10.4728C13.0544 9.25641 12.0648 8.2666 10.8482 8.2666ZM10.8482 11.2729C10.4071 11.2729 10.0483 10.914 10.0483 10.4729C10.0483 10.0319 10.4072 9.67303 10.8482 9.67303C11.2892 9.67303 11.6481 10.0319 11.6481 10.4729C11.6481 10.914 11.2894 11.2729 10.8482 11.2729Z" fill="#A9A9A9"/>
<path d="M27.3825 8.2666H15.3575C14.9692 8.2666 14.6544 8.58141 14.6544 8.96973C14.6544 9.35804 14.9692 9.67285 15.3575 9.67285H27.3825C27.7708 9.67285 28.0856 9.35804 28.0856 8.96973C28.0856 8.58141 27.7708 8.2666 27.3825 8.2666Z" fill="#A9A9A9"/>
<path d="M16.8606 11.2734H15.3575C14.9692 11.2734 14.6544 11.5882 14.6544 11.9766C14.6544 12.3649 14.9692 12.6797 15.3575 12.6797H16.8606C17.2489 12.6797 17.5638 12.3649 17.5638 11.9766C17.5639 11.5882 17.249 11.2734 16.8606 11.2734Z" fill="#A9A9A9"/>
<path d="M23.6247 11.2734H19.8669C19.4786 11.2734 19.1638 11.5882 19.1638 11.9766C19.1638 12.3649 19.4786 12.6797 19.8669 12.6797H23.6247C24.013 12.6797 24.3278 12.3649 24.3278 11.9766C24.3278 11.5882 24.013 11.2734 23.6247 11.2734Z" fill="#A9A9A9"/>
<path d="M10.8482 16.5342C9.63159 16.5342 8.64197 17.524 8.64197 18.7404C8.64197 19.957 9.63178 20.9466 10.8482 20.9466C12.0647 20.9466 13.0544 19.9568 13.0544 18.7404C13.0545 17.5238 12.0648 16.5342 10.8482 16.5342ZM10.8482 19.5404C10.4071 19.5404 10.0483 19.1815 10.0483 18.7404C10.0483 18.2993 10.4072 17.9404 10.8482 17.9404C11.2892 17.9404 11.6481 18.2993 11.6481 18.7404C11.6481 19.1815 11.2894 19.5404 10.8482 19.5404Z" fill="#A9A9A9"/>
<path d="M27.3825 16.5342H15.3575C14.9692 16.5342 14.6544 16.849 14.6544 17.2373C14.6544 17.6256 14.9692 17.9404 15.3575 17.9404H27.3825C27.7708 17.9404 28.0856 17.6256 28.0856 17.2373C28.0857 16.849 27.7708 16.5342 27.3825 16.5342Z" fill="#A9A9A9"/>
<path d="M16.8606 19.54H15.3575C14.9692 19.54 14.6544 19.8549 14.6544 20.2432C14.6544 20.6315 14.9692 20.9463 15.3575 20.9463H16.8606C17.2489 20.9463 17.5638 20.6315 17.5638 20.2432C17.5639 19.8549 17.249 19.54 16.8606 19.54Z" fill="#A9A9A9"/>
<path d="M23.6247 19.54H19.8669C19.4786 19.54 19.1638 19.8549 19.1638 20.2432C19.1638 20.6315 19.4786 20.9463 19.8669 20.9463H23.6247C24.013 20.9463 24.3278 20.6315 24.3278 20.2432C24.3278 19.8549 24.013 19.54 23.6247 19.54Z" fill="#A9A9A9"/>
<path d="M10.8482 24.8018C9.63159 24.8018 8.64197 25.7916 8.64197 27.008C8.64197 28.2245 9.63178 29.2142 10.8482 29.2142C12.0647 29.2142 13.0544 28.2244 13.0544 27.008C13.0545 25.7916 12.0648 24.8018 10.8482 24.8018ZM10.8482 27.808C10.4071 27.808 10.0483 27.4492 10.0483 27.0081C10.0483 26.567 10.4072 26.2081 10.8482 26.2081C11.2892 26.2081 11.6481 26.567 11.6481 27.0081C11.6481 27.4492 11.2894 27.808 10.8482 27.808Z" fill="#A9A9A9"/>
<path d="M27.3825 24.8018H15.3575C14.9692 24.8018 14.6544 25.1166 14.6544 25.5049C14.6544 25.8932 14.9692 26.208 15.3575 26.208H27.3825C27.7708 26.208 28.0856 25.8932 28.0856 25.5049C28.0857 25.1166 27.7708 24.8018 27.3825 24.8018Z" fill="#A9A9A9"/>
<path d="M16.8606 27.8076H15.3575C14.9692 27.8076 14.6544 28.1224 14.6544 28.5107C14.6544 28.8991 14.9692 29.2139 15.3575 29.2139H16.8606C17.2489 29.2139 17.5638 28.8991 17.5638 28.5107C17.5639 28.1224 17.249 27.8076 16.8606 27.8076Z" fill="#A9A9A9"/>
<path d="M23.6247 27.8076H19.8669C19.4786 27.8076 19.1638 28.1224 19.1638 28.5107C19.1638 28.8991 19.4786 29.2139 19.8669 29.2139H23.6247C24.013 29.2139 24.3278 28.8991 24.3278 28.5107C24.3278 28.1224 24.013 27.8076 23.6247 27.8076Z" fill="#A9A9A9"/>
<path d="M31.1403 0H5.58732C4.37082 0 3.3811 0.989811 3.3811 2.20621V35.2747C3.3811 36.4913 4.37091 37.4809 5.58732 37.4809H18.9274C19.3158 37.4809 19.6306 37.1661 19.6306 36.7778C19.6306 36.3895 19.3158 36.0747 18.9274 36.0747H5.58732C5.14623 36.0747 4.78744 35.7158 4.78744 35.2747V2.20621C4.78744 1.76512 5.14632 1.40625 5.58732 1.40625H31.1402C31.5813 1.40625 31.9402 1.76512 31.9402 2.20621V22.7801C31.9402 23.1684 32.255 23.4832 32.6433 23.4832C33.0316 23.4832 33.3465 23.1684 33.3465 22.7801V2.20621C33.3465 0.989811 32.3567 0 31.1403 0Z" fill="#A9A9A9"/>
<path d="M44.5096 33.6854C44.2295 32.8237 43.4646 32.2273 42.5605 32.1659L36.8673 31.78L34.7409 26.4847C34.4032 25.6439 33.5995 25.1006 32.6935 25.1006C31.7874 25.1006 30.9838 25.6439 30.6462 26.4847L28.5198 31.78L22.8266 32.1659C21.9225 32.2273 21.1575 32.8236 20.8775 33.6854C20.5976 34.5472 20.8659 35.4793 21.5611 36.0604L25.9402 39.7191L24.548 45.253C24.3269 46.1317 24.6577 47.0436 25.3908 47.5762C26.1238 48.1087 27.0933 48.1416 27.8608 47.6599L32.6936 44.6258L37.5264 47.6599C37.8881 47.8869 38.2946 47.9997 38.7003 47.9996C39.1552 47.9996 39.6089 47.8578 39.9965 47.5762C40.7294 47.0436 41.0603 46.1317 40.8393 45.253L39.4471 39.7191L43.8261 36.0604C44.5212 35.4793 44.7895 34.5471 44.5096 33.6854ZM42.9242 34.9811L38.2064 38.9229C37.9993 39.0959 37.9095 39.3722 37.9753 39.634L39.4752 45.596C39.5977 46.0825 39.2722 46.3636 39.1697 46.4382C39.0671 46.5128 38.6991 46.7354 38.2741 46.4686L33.0674 43.1998C32.9531 43.1281 32.8233 43.0922 32.6935 43.0922C32.5638 43.0922 32.4339 43.1281 32.3197 43.1998L27.113 46.4686C26.688 46.7355 26.3201 46.5129 26.2174 46.4382C26.1147 46.3637 25.7894 46.0825 25.9119 45.596L27.4118 39.6341C27.4776 39.3723 27.3879 39.0959 27.1807 38.923L22.4629 34.9812C22.0779 34.6595 22.1758 34.2407 22.215 34.1201C22.2542 33.9994 22.421 33.6031 22.9216 33.5692L29.0553 33.1533C29.3245 33.135 29.5597 32.9642 29.6603 32.7138L31.9513 27.0089C32.1383 26.5432 32.5667 26.507 32.6935 26.507C32.8204 26.507 33.2488 26.5432 33.4358 27.0089L35.7268 32.7138C35.8274 32.9642 36.0625 33.135 36.3318 33.1533L42.4655 33.5692C42.9661 33.6031 43.1329 33.9994 43.1721 34.1201C43.2112 34.2406 43.3092 34.6593 42.9242 34.9811Z" fill="#39B993"/>
</g>
<defs>
<clipPath id="clip0">
<rect width="48" height="48" fill="white"/>
</clipPath>
</defs>
</svg>
