<svg width="16" height="18" viewBox="0 0 16 18" fill="none" xmlns="http://www.w3.org/2000/svg">
<path d="M15.2 15.5595L14.1693 3.95337C14.1472 3.69571 13.93 3.50061 13.6761 3.50061H11.5558C11.5264 1.56442 9.94353 0 7.99998 0C6.05642 0 4.4736 1.56442 4.44415 3.50061H2.3239C2.06623 3.50061 1.85274 3.69571 1.83065 3.95337L0.799976 15.5595C0.799976 15.5742 0.796295 15.589 0.796295 15.6037C0.796295 16.9252 2.00734 18 3.49814 18H12.5018C13.9926 18 15.2037 16.9252 15.2037 15.6037C15.2037 15.589 15.2037 15.5742 15.2 15.5595ZM7.99998 0.993865C9.39507 0.993865 10.5325 2.11288 10.5619 3.50061H5.43801C5.46746 2.11288 6.60488 0.993865 7.99998 0.993865ZM12.5018 17.0061H3.49814C2.56317 17.0061 1.80488 16.3877 1.79016 15.6258L2.77666 4.49816H4.44047V6.00736C4.44047 6.28344 4.66133 6.50429 4.9374 6.50429C5.21347 6.50429 5.43433 6.28344 5.43433 6.00736V4.49816H10.5619V6.00736C10.5619 6.28344 10.7828 6.50429 11.0589 6.50429C11.3349 6.50429 11.5558 6.28344 11.5558 6.00736V4.49816H13.2196L14.2098 15.6258C14.1951 16.3877 13.4331 17.0061 12.5018 17.0061Z" fill="white"/>
<path fill-rule="evenodd" clip-rule="evenodd" d="M10.9786 10.1036L7.62504 13.4571L5.39648 11.2286L6.10359 10.5215L7.62504 12.0429L10.2715 9.39648L10.9786 10.1036Z" fill="white"/>
</svg>
