<svg width="16" height="18" viewBox="0 0 16 18" fill="none" xmlns="http://www.w3.org/2000/svg">
    <path d="M15.1999 15.5595L14.1693 3.95337C14.1472 3.69571 13.93 3.50061 13.676 3.50061H11.5558C11.5263 1.56442 9.9435 0 7.99995 0C6.05639 0 4.47357 1.56442 4.44412 3.50061H2.32387C2.0662 3.50061 1.85271 3.69571 1.83062 3.95337L0.799946 15.5595C0.799946 15.5742 0.796265 15.589 0.796265 15.6037C0.796265 16.9252 2.00731 18 3.49811 18H12.5018C13.9926 18 15.2036 16.9252 15.2036 15.6037C15.2036 15.589 15.2036 15.5742 15.1999 15.5595ZM7.99995 0.993865C9.39504 0.993865 10.5325 2.11288 10.5619 3.50061H5.43798C5.46743 2.11288 6.60485 0.993865 7.99995 0.993865ZM12.5018 17.0061H3.49811C2.56314 17.0061 1.80485 16.3877 1.79013 15.6258L2.77663 4.49816H4.44044V6.00736C4.44044 6.28344 4.6613 6.50429 4.93737 6.50429C5.21344 6.50429 5.4343 6.28344 5.4343 6.00736V4.49816H10.5619V6.00736C10.5619 6.28344 10.7828 6.50429 11.0588 6.50429C11.3349 6.50429 11.5558 6.28344 11.5558 6.00736V4.49816H13.2196L14.2098 15.6258C14.195 16.3877 13.4331 17.0061 12.5018 17.0061Z" fill="white"></path>
    <path d="M5.75 10.875L7.625 12.75L10.625 9.75" stroke="white"></path>
</svg>