<svg width="16" height="18" viewBox="0 0 16 18" fill="none" xmlns="http://www.w3.org/2000/svg">
<path d="M15.2001 15.5595L14.1694 3.95337C14.1473 3.69571 13.9301 3.50061 13.6761 3.50061H11.5559C11.5264 1.56442 9.94363 0 8.00007 0C6.05651 0 4.47369 1.56442 4.44424 3.50061H2.32399C2.06633 3.50061 1.85283 3.69571 1.83074 3.95337L0.800068 15.5595C0.800068 15.5742 0.796387 15.589 0.796387 15.6037C0.796387 16.9252 2.00743 18 3.49823 18H12.5019C13.9927 18 15.2037 16.9252 15.2037 15.6037C15.2037 15.589 15.2037 15.5742 15.2001 15.5595ZM8.00007 0.993865C9.39516 0.993865 10.5326 2.11288 10.562 3.50061H5.4381C5.46755 2.11288 6.60498 0.993865 8.00007 0.993865ZM12.5019 17.0061H3.49823C2.56326 17.0061 1.80498 16.3877 1.79025 15.6258L2.77675 4.49816H4.44056V6.00736C4.44056 6.28344 4.66142 6.50429 4.93749 6.50429C5.21356 6.50429 5.43442 6.28344 5.43442 6.00736V4.49816H10.562V6.00736C10.562 6.28344 10.7829 6.50429 11.059 6.50429C11.335 6.50429 11.5559 6.28344 11.5559 6.00736V4.49816H13.2197L14.2099 15.6258C14.1952 16.3877 13.4332 17.0061 12.5019 17.0061Z" fill="#323232"/>
</svg>
