<svg width="18" height="18" viewBox="0 0 18 18" fill="none" xmlns="http://www.w3.org/2000/svg">
<path d="M12.7495 17.9922C12.8307 17.9959 12.9082 17.9995 12.9894 17.9995C13.8566 17.9995 14.5799 17.6859 15.1482 17.0696C15.1519 17.0659 15.1593 17.0585 15.163 17.0548C15.3659 16.8113 15.5947 16.5899 15.8383 16.3574C16.0043 16.1987 16.1741 16.0363 16.3328 15.8666C17.0893 15.0768 17.0856 14.0768 16.3254 13.3166L14.2219 11.2131C13.8603 10.8367 13.4285 10.6374 12.9709 10.6374C12.517 10.6374 12.0816 10.833 11.7088 11.2057L10.4652 12.4493C10.3545 12.3866 10.2401 12.3313 10.1294 12.2759C9.98916 12.2058 9.86 12.1394 9.74561 12.0692C8.6053 11.3459 7.57202 10.4012 6.58302 9.18712C6.08483 8.55977 5.7564 8.03575 5.52391 7.49697C5.84865 7.20174 6.15126 6.89545 6.44279 6.59653C6.54981 6.48952 6.65683 6.37881 6.76754 6.2681C7.55726 5.47837 7.55726 4.50045 6.76754 3.71441L5.72318 2.67006C5.6014 2.54828 5.48331 2.4265 5.36523 2.30841C5.13274 2.07223 4.89287 1.82498 4.653 1.60356C4.29135 1.24192 3.86328 1.05371 3.40937 1.05371C2.95915 1.05371 2.5237 1.24192 2.14729 1.60356L0.837235 2.90993C0.357496 3.38967 0.0844145 3.97273 0.0253698 4.64806C-0.0410555 5.48945 0.113937 6.3825 0.512489 7.46006C1.12877 9.12438 2.05503 10.6706 3.42782 12.3239C5.09952 14.3166 7.10704 15.8924 9.40241 17.0032C10.277 17.4202 11.4468 17.9073 12.7495 17.9922ZM4.12529 11.7445C2.81892 10.1724 1.94432 8.71107 1.36495 7.14639C1.00699 6.18322 0.874138 5.43409 0.929492 4.72186C0.970085 4.26058 1.14722 3.87679 1.47935 3.54835L2.78202 2.24568C2.9813 2.05378 3.19902 1.95414 3.41306 1.95414C3.62341 1.95414 3.83006 2.05378 4.02934 2.24937C4.26183 2.46709 4.48694 2.69589 4.72311 2.93576C4.8412 3.05754 4.96298 3.18301 5.08845 3.30479L6.13281 4.34914C6.56088 4.77722 6.56088 5.19791 6.13281 5.62599C6.0221 5.73669 5.91139 5.8474 5.80437 5.95811C5.47962 6.28655 5.17702 6.59653 4.8412 6.89545C4.83382 6.90283 4.83013 6.90652 4.82275 6.9139C4.52384 7.21281 4.56812 7.50066 4.64193 7.71469C4.64562 7.72576 4.64931 7.73314 4.653 7.74422C4.92239 8.39371 5.30249 9.00999 5.88556 9.74804C6.93729 11.0433 8.04438 12.0508 9.26956 12.8294C9.42086 12.9254 9.57954 13.0066 9.73453 13.0841C9.87476 13.1542 10.0039 13.2206 10.1183 13.2907C10.1331 13.2981 10.1442 13.3055 10.1589 13.3129C10.277 13.3719 10.3914 13.4014 10.5095 13.4014C10.801 13.4014 10.9855 13.2169 11.0446 13.1542L12.3546 11.8441C12.5539 11.6449 12.768 11.5415 12.9783 11.5415C13.2366 11.5415 13.447 11.7039 13.5835 11.8441L15.6944 13.955C16.211 14.4716 15.9748 14.9366 15.6833 15.2429C15.5357 15.4016 15.3807 15.5492 15.2183 15.7079C14.9711 15.944 14.7164 16.1913 14.4839 16.4681C14.0854 16.8961 13.613 17.0954 12.9968 17.0954C12.9377 17.0954 12.875 17.0917 12.8159 17.088C11.6682 17.0142 10.6054 16.5677 9.80465 16.1876C7.62 15.1359 5.71211 13.6413 4.12529 11.7445Z" fill="#323232"/>
<path d="M9.89326 3.29419C9.64601 3.2536 9.41352 3.41966 9.37293 3.66322C9.33234 3.91047 9.4984 4.14296 9.74196 4.18356C10.7568 4.357 11.6794 4.83674 12.4174 5.57111C13.1518 6.30547 13.6315 7.23174 13.805 8.24657C13.8419 8.46799 14.0338 8.62298 14.2515 8.62298C14.2773 8.62298 14.3032 8.61929 14.329 8.6156C14.5762 8.57501 14.7423 8.33883 14.698 8.09527C14.495 6.89592 13.9267 5.7999 13.0595 4.93269C12.1849 4.06178 11.0926 3.49716 9.89326 3.29419Z" fill="#323232"/>
<path d="M17.5358 8.46795C17.5616 8.46795 17.5875 8.46426 17.6133 8.46057C17.8605 8.41998 18.0266 8.1838 17.9823 7.94024C17.6465 5.95486 16.7092 4.15031 15.2736 2.71479C13.8344 1.27926 12.0299 0.341925 10.0445 0.00610862C9.79726 -0.0344846 9.56477 0.131579 9.52418 0.375138C9.48358 0.622388 9.64964 0.854876 9.8932 0.89547C11.6904 1.20176 13.3289 2.05053 14.6315 3.35321C15.9342 4.65588 16.783 6.29437 17.0893 8.09154C17.1262 8.31296 17.3181 8.46795 17.5358 8.46795Z" fill="#323232"/>
</svg>
