<svg width="14" height="14" viewBox="0 0 14 14" fill="none" xmlns="http://www.w3.org/2000/svg">
<path d="M0.824813 13.175C0.911634 13.2618 1.02016 13.3052 1.13954 13.3052C1.25892 13.3052 1.36745 13.2618 1.45427 13.175L7.00001 7.62922L12.5457 13.175C12.6326 13.2618 12.7411 13.3052 12.8605 13.3052C12.969 13.3052 13.0884 13.2618 13.1752 13.175C13.3488 13.0013 13.3488 12.7191 13.1752 12.5455L7.62946 6.99976L13.1752 1.45403C13.3488 1.28038 13.3488 0.998212 13.1752 0.824568C13.0016 0.650925 12.7194 0.650925 12.5457 0.824568L7.00001 6.37031L1.45427 0.824568C1.28063 0.650925 0.998456 0.650925 0.824813 0.824568C0.651169 0.998212 0.651169 1.28038 0.824813 1.45403L6.37055 6.99976L0.824813 12.5455C0.651169 12.7191 0.651169 13.0013 0.824813 13.175Z" fill="#A9A9A9"/>
</svg>
