<svg width="18" height="18" viewBox="0 0 18 18" fill="none" xmlns="http://www.w3.org/2000/svg">
<path d="M2.46977 16.5069C2.46977 16.8279 2.72094 17.079 3.04187 17.079C3.3628 17.079 3.61396 16.8279 3.61396 16.5069V5.17671C4.53489 4.92555 5.21861 4.08834 5.21861 3.08369C5.21861 1.89764 4.25582 0.920898 3.05582 0.920898C1.85582 0.920898 0.906982 1.89764 0.906982 3.08369C0.906982 4.07439 1.57675 4.9116 2.48373 5.16276V16.5069H2.46977ZM2.02326 3.08369C2.02326 2.52555 2.48373 2.06508 3.04187 2.06508C3.60001 2.06508 4.06047 2.52555 4.06047 3.08369C4.06047 3.64183 3.60001 4.10229 3.04187 4.10229C2.48373 4.10229 2.02326 3.64183 2.02326 3.08369Z" fill="#323232"/>
<path d="M8.98612 0.920898C8.66519 0.920898 8.41402 1.17206 8.41402 1.49299V7.38136C7.50705 7.63253 6.83728 8.46974 6.83728 9.46043C6.83728 10.4511 7.50705 11.2883 8.41402 11.5395V16.5209C8.41402 16.8418 8.66519 17.093 8.98612 17.093C9.30705 17.093 9.55821 16.8418 9.55821 16.5209V11.5395C10.4791 11.2883 11.1629 10.4511 11.1629 9.44648C11.1629 8.44183 10.4791 7.60462 9.55821 7.35346V1.49299C9.55821 1.17206 9.30705 0.920898 8.98612 0.920898ZM10.0326 9.46043C10.0326 10.0186 9.57216 10.479 9.01402 10.479C8.45588 10.479 7.99542 10.0186 7.99542 9.46043C7.99542 8.90229 8.45588 8.44183 9.01402 8.44183C9.57216 8.44183 10.0326 8.88834 10.0326 9.46043Z" fill="#323232"/>
<path d="M15.5023 12.8372V1.49299C15.5023 1.17206 15.2512 0.920898 14.9302 0.920898C14.6093 0.920898 14.3582 1.17206 14.3582 1.49299V12.8372C13.4372 13.0883 12.7675 13.9256 12.7675 14.9162C12.7675 16.1023 13.7302 17.079 14.9302 17.079C16.1302 17.079 17.093 16.1162 17.093 14.9162C17.107 13.9256 16.4233 13.0883 15.5023 12.8372ZM14.9442 15.9349C14.3861 15.9349 13.9256 15.4744 13.9256 14.9162C13.9256 14.3581 14.3861 13.8976 14.9442 13.8976C15.5023 13.8976 15.9628 14.3581 15.9628 14.9162C15.9628 15.4744 15.5023 15.9349 14.9442 15.9349Z" fill="#323232"/>
</svg>
