<svg width="16" height="18" viewBox="0 0 16 18" fill="none" xmlns="http://www.w3.org/2000/svg">
<path d="M13.2219 2.15655H10.42C10.2802 0.944572 9.24907 0 8.00019 0C6.75134 0 5.72032 0.944535 5.58055 2.15655H2.77855C1.64466 2.15655 0.72229 3.07919 0.72229 4.21304V4.31856C0.72229 5.18503 1.26181 5.92667 2.02184 6.22885V15.9436C2.02184 17.0774 2.94433 18 4.07814 18H11.9223C13.0562 18 13.9786 17.0774 13.9786 15.9436V6.22889C14.7386 5.92667 15.2781 5.18503 15.2781 4.31859V4.21308C15.2781 3.07919 14.3557 2.15655 13.2219 2.15655ZM8.00019 0.975279C8.71048 0.975279 9.30336 1.48439 9.43455 2.15655H6.56609C6.69724 1.48435 7.29016 0.975279 8.00019 0.975279ZM13.0033 15.9436C13.0033 16.5397 12.5182 17.0248 11.9223 17.0248H4.0781C3.48213 17.0248 2.99708 16.5397 2.99708 15.9436V6.37504H13.0033V15.9436ZM14.3028 4.31856C14.3028 4.91471 13.8178 5.3998 13.2218 5.3998H2.77855C2.18258 5.3998 1.69753 4.91471 1.69753 4.31856V4.21304C1.69753 3.61688 2.18258 3.1318 2.77855 3.1318H13.2219C13.8178 3.1318 14.3029 3.61688 14.3029 4.21304V4.31856H14.3028Z" fill="#323232"/>
<path d="M5.38581 15.7773C5.65513 15.7773 5.87343 15.5589 5.87343 15.2897V9.79918C5.87343 9.52994 5.65509 9.31152 5.38581 9.31152C5.11654 9.31152 4.89819 9.52994 4.89819 9.79918V15.2897C4.89816 15.559 5.1165 15.7773 5.38581 15.7773Z" fill="#323232"/>
<path d="M7.99994 15.7773C8.26925 15.7773 8.4876 15.5589 8.4876 15.2897V9.79918C8.4876 9.52994 8.26918 9.31152 7.99994 9.31152C7.73067 9.31152 7.51233 9.52994 7.51233 9.79918V15.2897C7.51233 15.559 7.73063 15.7773 7.99994 15.7773Z" fill="#323232"/>
<path d="M10.6145 15.7773C10.8838 15.7773 11.1021 15.5589 11.1021 15.2897V9.79918C11.1021 9.52994 10.8837 9.31152 10.6145 9.31152C10.3451 9.31152 10.1268 9.52994 10.1268 9.79918V15.2897C10.1268 15.559 10.3452 15.7773 10.6145 15.7773Z" fill="#323232"/>
</svg>
