<svg width="18" height="18" viewBox="0 0 18 18" fill="none" xmlns="http://www.w3.org/2000/svg">
<path d="M6.92097 11.3299L8.70702 16.688C8.77679 16.9112 8.98609 17.0647 9.20935 17.0787C9.2233 17.0787 9.23726 17.0787 9.25121 17.0787C9.47446 17.0787 9.66981 16.9531 9.76749 16.7578L17.0233 1.72985C17.1349 1.5066 17.0791 1.24148 16.9117 1.07404C16.7442 0.906596 16.4791 0.864736 16.2559 0.976364L1.22795 8.49729C1.01865 8.59497 0.893067 8.81822 0.920974 9.05543C0.934927 9.29264 1.08842 9.48799 1.31167 9.55776L6.92097 11.3299ZM15.2791 2.7345L9.34888 14.9996L7.91167 10.7019C7.85586 10.5345 7.71632 10.395 7.54888 10.3392L2.98609 8.88799L15.2791 2.7345Z" fill="#323232"/>
</svg>
