<svg width="12" height="12" viewBox="0 0 12 12" fill="none" xmlns="http://www.w3.org/2000/svg">
<path d="M3.08302 5.41694V6.58359H8.91629V5.41694H3.08302ZM5.99965 0.166992C2.77969 0.166992 0.166382 2.7803 0.166382 6.00027C0.166382 9.22023 2.77969 11.8335 5.99965 11.8335C9.21962 11.8335 11.8329 9.22023 11.8329 6.00027C11.8329 2.7803 9.21962 0.166992 5.99965 0.166992ZM5.99965 10.6669C3.42718 10.6669 1.33304 8.57274 1.33304 6.00027C1.33304 3.42779 3.42718 1.33365 5.99965 1.33365C8.57213 1.33365 10.6663 3.42779 10.6663 6.00027C10.6663 8.57274 8.57213 10.6669 5.99965 10.6669Z" fill="#323232"/>
</svg>
