<svg width="14" height="14" viewBox="0 0 14 14" fill="none" xmlns="http://www.w3.org/2000/svg">
<path d="M7.66646 3.66732H6.33313V6.33398H3.66646V7.66732H6.33313V10.334H7.66646V7.66732H10.3331V6.33398H7.66646V3.66732ZM6.99979 0.333984C3.32646 0.333984 0.33313 3.32732 0.33313 7.00065C0.33313 10.674 3.32646 13.6673 6.99979 13.6673C10.6731 13.6673 13.6665 10.674 13.6665 7.00065C13.6665 3.32732 10.6731 0.333984 6.99979 0.333984ZM6.99979 12.334C4.0598 12.334 1.66646 9.94065 1.66646 7.00065C1.66646 4.06065 4.0598 1.66732 6.99979 1.66732C9.93979 1.66732 12.3331 4.06065 12.3331 7.00065C12.3331 9.94065 9.93979 12.334 6.99979 12.334Z" fill="#39B993"/>
</svg>
