<svg width="12" height="12" viewBox="0 0 12 12" fill="none" xmlns="http://www.w3.org/2000/svg">
<path d="M6.00026 0C2.68765 0 0.000244141 2.68401 0.000244141 5.99685C0.000244141 9.31285 2.68765 12 6.00023 12C9.31465 12 11.9998 9.31282 11.9998 5.99685C11.9998 2.68401 9.31465 0 6.00026 0ZM6.42782 9.33541C6.28847 9.45942 6.12697 9.52175 5.94402 9.52175C5.75473 9.52175 5.58962 9.46054 5.44868 9.33788C5.30753 9.21545 5.23681 9.04403 5.23681 8.82379C5.23681 8.62842 5.30525 8.46398 5.44168 8.33071C5.57812 8.19745 5.74548 8.13081 5.94402 8.13081C6.13939 8.13081 6.30383 8.19745 6.43732 8.33071C6.57059 8.46398 6.63744 8.6284 6.63744 8.82379C6.63719 9.04087 6.56739 9.21142 6.42782 9.33541ZM8.16543 5.02763C8.05836 5.22617 7.93121 5.39737 7.78372 5.54172C7.63667 5.68605 7.37219 5.92863 6.99045 6.26969C6.88519 6.36591 6.8005 6.45039 6.73703 6.52311C6.67357 6.59608 6.62613 6.66268 6.59518 6.72323C6.564 6.78375 6.54008 6.8443 6.52313 6.90482C6.50618 6.96512 6.48067 7.07151 6.4461 7.22351C6.38739 7.54606 6.20285 7.70731 5.89272 7.70731C5.73145 7.70731 5.59593 7.65468 5.48547 7.5492C5.37547 7.44372 5.32059 7.2872 5.32059 7.0794C5.32059 6.81898 5.36102 6.59332 5.44165 6.40248C5.52185 6.21161 5.62913 6.04425 5.7624 5.89992C5.89589 5.7556 6.07567 5.58437 6.30222 5.38584C6.50076 5.21214 6.6442 5.08115 6.7325 4.99281C6.82103 4.90428 6.89536 4.80581 6.95566 4.69738C7.01643 4.58873 7.04625 4.47106 7.04625 4.3439C7.04625 4.09568 6.95433 3.88653 6.76957 3.716C6.58504 3.54547 6.34696 3.46008 6.05536 3.46008C5.71408 3.46008 5.46291 3.54613 5.30163 3.71825C5.14036 3.89036 5.00417 4.14378 4.89236 4.47875C4.78666 4.82932 4.58653 5.00457 4.29221 5.00457C4.11852 5.00457 3.97194 4.94335 3.85245 4.82092C3.73319 4.69849 3.67356 4.56592 3.67356 4.42318C3.67356 4.12864 3.7682 3.83004 3.95727 3.5276C4.14655 3.22517 4.42256 2.97467 4.78552 2.77635C5.14825 2.57781 5.57178 2.47842 6.05536 2.47842C6.50507 2.47842 6.90192 2.56153 7.24615 2.72755C7.59038 2.89333 7.85644 3.11899 8.04414 3.40448C8.23162 3.68974 8.32557 3.99987 8.32557 4.33484C8.32601 4.59802 8.27249 4.82909 8.16543 5.02763Z" fill="#39B993"/>
</svg>
