<svg width="14" height="14" viewBox="0 0 14 14" fill="none" xmlns="http://www.w3.org/2000/svg">
<path d="M5.5999 10.4942C6.79369 10.4942 7.87897 10.071 8.72548 9.35469L12.5239 13.1531C12.6107 13.24 12.7193 13.2834 12.8387 13.2834C12.958 13.2834 13.0666 13.24 13.1534 13.1531C13.327 12.9795 13.327 12.6973 13.1534 12.5237L9.35493 8.72523C10.0604 7.87872 10.4945 6.7826 10.4945 5.59965C10.4945 2.89733 8.30222 0.705078 5.5999 0.705078C2.90842 0.705078 0.705322 2.90818 0.705322 5.59965C0.705322 8.30198 2.90842 10.4942 5.5999 10.4942ZM5.5999 1.595C7.81385 1.595 9.60455 3.39655 9.60455 5.59965C9.60455 7.8136 7.81385 9.6043 5.5999 9.6043C3.38594 9.6043 1.59524 7.80275 1.59524 5.59965C1.59524 3.39655 3.3968 1.595 5.5999 1.595Z" fill="white"/>
</svg>
