<svg width="18" height="18" viewBox="0 0 18 18" fill="none" xmlns="http://www.w3.org/2000/svg">
<path d="M8.97032 10.0494C11.6304 10.0494 13.788 7.89176 13.788 5.23168C13.788 2.5716 11.6304 0.428711 8.97032 0.428711C6.31024 0.428711 4.15259 2.58636 4.15259 5.23168C4.15259 7.877 6.3102 10.0494 8.97032 10.0494ZM8.97032 1.68487C10.921 1.68487 12.5171 3.28092 12.5171 5.23168C12.5171 7.18244 10.921 8.77846 8.97032 8.77846C7.01959 8.77846 5.42351 7.18241 5.42351 5.23165C5.42351 3.28089 7.01956 1.68487 8.97032 1.68487Z" fill="#323232"/>
<path d="M0.635461 17.5714H17.3645C17.7192 17.5714 18 17.2906 18 16.9359C18 13.6108 15.2956 10.8916 11.9557 10.8916H6.04434C2.71922 10.8916 0 13.596 0 16.9359C0 17.2906 0.280784 17.5714 0.635461 17.5714ZM6.04434 12.1625H11.9557C14.3793 12.1625 16.3744 13.9655 16.6847 16.3004H1.31527C1.6256 13.9803 3.6207 12.1625 6.04434 12.1625Z" fill="#323232"/>
</svg>
