<?xml version="1.0" encoding="UTF-8"?><!DOCTYPE svg PUBLIC "-//W3C//DTD SVG 1.1//EN" "http://www.w3.org/Graphics/SVG/1.1/DTD/svg11.dtd"><svg xmlns="http://www.w3.org/2000/svg"><symbol id="ico-mono-basket" viewBox="0 0 16 18">
    <path d="M15.2 15.56L14.17 3.953a.496.496 0 0 0-.494-.452h-2.12A3.559 3.559 0 0 0 8 0a3.559 3.559 0 0 0-3.556 3.5h-2.12a.493.493 0 0 0-.493.453L.8 15.56c0 .014-.005.029-.005.044C.796 16.925 2.007 18 3.498 18h9.004c1.49 0 2.702-1.075 2.702-2.396 0-.015 0-.03-.004-.044zM8 .993A2.565 2.565 0 0 1 10.562 3.5H5.438A2.565 2.565 0 0 1 8 .994zm4.502 16.012H3.498c-.935 0-1.693-.618-1.708-1.38l.987-11.128H4.44v1.51c0 .275.22.496.496.496.277 0 .497-.22.497-.497V4.498h5.128v1.51c0 .275.22.496.497.496.276 0 .497-.22.497-.497V4.498h1.664l.99 11.128c-.015.762-.777 1.38-1.708 1.38z"/>
</symbol><symbol id="ico-mono-call" viewBox="0 0 18 18">
    <path d="M12.75 17.992c.08.004.158.008.24.008.867 0 1.59-.314 2.158-.93l.015-.015a8.52 8.52 0 0 1 .675-.698c.166-.158.336-.32.495-.49.756-.79.753-1.79-.008-2.55l-2.103-2.104c-.362-.376-.793-.576-1.251-.576-.454 0-.89.196-1.262.569l-1.244 1.243c-.11-.062-.225-.118-.336-.173-.14-.07-.269-.137-.383-.207-1.14-.723-2.174-1.668-3.163-2.882-.498-.627-.827-1.151-1.06-1.69.326-.295.628-.602.92-.9l.325-.329c.79-.79.79-1.768 0-2.554L5.723 2.67l-.358-.362c-.232-.236-.472-.483-.712-.704-.362-.362-.79-.55-1.244-.55-.45 0-.885.188-1.262.55L.837 2.91a2.731 2.731 0 0 0-.812 1.738C-.04 5.49.114 6.383.512 7.46c.617 1.664 1.543 3.21 2.916 4.864a17.996 17.996 0 0 0 5.974 4.68c.875.416 2.045.903 3.348.988zm-8.625-6.248c-1.306-1.572-2.18-3.033-2.76-4.598-.358-.963-.49-1.712-.436-2.424.041-.461.218-.845.55-1.174l1.303-1.302c.2-.192.417-.292.631-.292.21 0 .417.1.616.295.233.218.458.447.694.687.118.122.24.247.365.369l1.045 1.044c.428.428.428.849 0 1.277-.11.11-.222.221-.329.332-.324.329-.627.639-.963.937l-.018.019c-.3.299-.255.587-.181.8l.011.03c.27.65.65 1.266 1.233 2.004 1.051 1.295 2.158 2.303 3.384 3.081.15.096.31.178.465.255.14.07.269.137.383.207.015.007.026.014.04.022a.772.772 0 0 0 .351.088.74.74 0 0 0 .536-.247l1.31-1.31c.199-.2.413-.303.623-.303.259 0 .469.163.606.303l2.11 2.111c.517.517.28.982-.01 1.288-.148.159-.303.306-.466.465a9.591 9.591 0 0 0-.734.76c-.399.428-.871.627-1.487.627-.06 0-.122-.003-.181-.007-1.148-.074-2.21-.52-3.011-.9a16.956 16.956 0 0 1-5.68-4.443z"/>
    <path d="M9.893 3.294a.452.452 0 0 0-.151.89 4.959 4.959 0 0 1 2.675 1.387 4.946 4.946 0 0 1 1.388 2.676.451.451 0 0 0 .524.369.448.448 0 0 0 .369-.52 5.834 5.834 0 0 0-1.639-3.163 5.845 5.845 0 0 0-3.166-1.639z"/>
    <path d="M17.536 8.468a.448.448 0 0 0 .447-.528 9.623 9.623 0 0 0-2.71-5.225A9.646 9.646 0 0 0 10.045.006a.452.452 0 0 0-.15.89 8.748 8.748 0 0 1 4.738 2.457 8.748 8.748 0 0 1 2.457 4.739.451.451 0 0 0 .447.376z"/>
</symbol><symbol id="ico-mono-comparison" viewBox="0 0 18 18">
    <path d="M2.47 16.507c0 .32.25.572.572.572.32 0 .572-.251.572-.572V5.177A2.165 2.165 0 0 0 3.056.92c-1.2 0-2.149.977-2.149 2.163 0 .99.67 1.828 1.577 2.079v11.344H2.47zM2.023 3.084c0-.558.46-1.019 1.019-1.019.558 0 1.018.46 1.018 1.019 0 .558-.46 1.018-1.018 1.018s-1.019-.46-1.019-1.018z"/>
    <path d="M8.986.92a.566.566 0 0 0-.572.573v5.888a2.16 2.16 0 0 0 0 4.159v4.98c0 .322.251.573.572.573.321 0 .572-.251.572-.572v-4.982a2.172 2.172 0 0 0 1.605-2.093 2.172 2.172 0 0 0-1.605-2.093v-5.86a.566.566 0 0 0-.572-.572zm1.047 8.54c0 .559-.46 1.019-1.019 1.019-.558 0-1.019-.46-1.019-1.019 0-.558.46-1.018 1.019-1.018.558 0 1.019.446 1.019 1.018z"/>
    <path d="M15.502 12.837V1.493a.566.566 0 0 0-.572-.572.566.566 0 0 0-.572.572v11.344a2.156 2.156 0 0 0-1.59 2.08c0 1.185.962 2.162 2.162 2.162s2.163-.963 2.163-2.163c.014-.99-.67-1.828-1.59-2.079zm-.558 3.098c-.558 0-1.018-.46-1.018-1.019 0-.558.46-1.018 1.018-1.018s1.019.46 1.019 1.018-.46 1.019-1.019 1.019z"/>
</symbol><symbol id="ico-mono-delivery" viewBox="0 0 18 18">
    <path d="M6.921 11.33l1.786 5.358a.57.57 0 0 0 .502.39h.042a.574.574 0 0 0 .516-.32L17.023 1.73a.572.572 0 0 0-.111-.656.569.569 0 0 0-.656-.098L1.228 8.497a.543.543 0 0 0-.307.558.554.554 0 0 0 .39.503l5.61 1.772zm8.358-8.595L9.35 15l-1.437-4.298a.585.585 0 0 0-.363-.363L2.986 8.888 15.28 2.735z"/>
</symbol></svg>